%FSTAX24Y24*%
%MOIN*%
%IN fourses_panel_2.bottomsoldermask.ger *%
%ADD10C,0.0300*%
%ADD11C,0.0500*%
%ADD12C,0.2169*%
%ADD13C,0.3350*%
%ADD14C,0.3743*%
D10*X0115Y010681D02*G01X0135Y012681D01*X0115Y012181D01*X011Y014681D01*
X01Y012181D01*X008Y014181D01*X0085Y011681D01*X0065Y011181D01*
X0085Y010181D01*X007Y008181D01*X009Y008681D01*X0095Y006181D01*
X0105Y008681D01*X0125Y006681D01*X012Y009181D01*X014Y009681D01*
X0115Y010681D01*G36*G01X0135Y012681D01*X0115Y012181D01*X011Y014681D01*
X01Y012181D01*X008Y014181D01*X0085Y011681D01*X0065Y011181D01*
X0085Y010181D01*X007Y008181D01*X009Y008681D01*X0095Y006181D01*
X0105Y008681D01*X0125Y006681D01*X012Y009181D01*X014Y009681D01*
X0115Y010681D01*G37*X0085Y040681D02*G01X0065Y038681D01*X0085Y039181D01*
X009Y036681D01*X01Y039181D01*X012Y037181D01*X0115Y039681D01*
X0135Y040181D01*X0115Y041181D01*X013Y043181D01*X011Y042681D01*
X0105Y045181D01*X0095Y042681D01*X0075Y044681D01*X008Y042181D01*
X006Y041681D01*X0085Y040681D01*G36*G01X0065Y038681D01*X0085Y039181D01*
X009Y036681D01*X01Y039181D01*X012Y037181D01*X0115Y039681D01*
X0135Y040181D01*X0115Y041181D01*X013Y043181D01*X011Y042681D01*
X0105Y045181D01*X0095Y042681D01*X0075Y044681D01*X008Y042181D01*
X006Y041681D01*X0085Y040681D01*G37*X009Y030181D02*G01X007Y028181D01*
X009Y028681D01*X0095Y026181D01*X0105Y028681D01*X0125Y026681D01*
X012Y029181D01*X014Y029681D01*X012Y030681D01*X0135Y032681D01*
X0115Y032181D01*X011Y034681D01*X01Y032181D01*X008Y034181D01*
X0085Y031681D01*X0065Y031181D01*X009Y030181D01*G36*G01X007Y028181D01*
X009Y028681D01*X0095Y026181D01*X0105Y028681D01*X0125Y026681D01*
X012Y029181D01*X014Y029681D01*X012Y030681D01*X0135Y032681D01*
X0115Y032181D01*X011Y034681D01*X01Y032181D01*X008Y034181D01*
X0085Y031681D01*X0065Y031181D01*X009Y030181D01*G37*X0085Y020181D02*
G01X0065Y018181D01*X0085Y018681D01*X009Y016181D01*X01Y018681D01*
X012Y016681D01*X0115Y019181D01*X0135Y019681D01*X0115Y020681D01*
X013Y022681D01*X011Y022181D01*X0105Y024681D01*X0095Y022181D01*
X0075Y024181D01*X008Y021681D01*X006Y021181D01*X0085Y020181D01*G36*
G01X0065Y018181D01*X0085Y018681D01*X009Y016181D01*X01Y018681D01*
X012Y016681D01*X0115Y019181D01*X0135Y019681D01*X0115Y020681D01*
X013Y022681D01*X011Y022181D01*X0105Y024681D01*X0095Y022181D01*
X0075Y024181D01*X008Y021681D01*X006Y021181D01*X0085Y020181D01*G37*
%LPC*%
%LPD*%
D12*X002953Y001181D03*X057047D03*X002953Y049409D03*X057047D03*D14*
X005Y030681D03*Y020681D03*X015Y030681D03*Y010681D03*X005Y040681D03*
Y010681D03*X015Y040681D03*Y020681D03*D13*X025Y013181D03*X034Y018181D03*
X041D03*X048D03*X053Y043181D03*Y023181D03*Y013181D03*X025Y023181D03*
X041Y028181D03*X034D03*X048D03*X027D03*X039Y033181D03*X032D03*X046D03*
X055Y038181D03*Y008181D03*X027D03*X055Y028181D03*X053Y033181D03*
X025Y043181D03*X055Y018181D03*X027Y038181D03*X025Y033181D03*
X027Y018181D03*X034Y008181D03*X039Y013181D03*Y023181D03*X041Y038181D03*
X039Y043181D03*X041Y008181D03*X032Y013181D03*Y023181D03*X034Y038181D03*
X032Y043181D03*X048Y038181D03*X046Y013181D03*Y023181D03*Y043181D03*
X048Y008181D03*D12*X002953Y001181D03*X057047D03*X002953Y049409D03*
X057047D03*D14*X005Y030681D03*Y020681D03*X015Y030681D03*Y010681D03*
X005Y040681D03*Y010681D03*X015Y040681D03*Y020681D03*D13*X025Y013181D03*
X034Y018181D03*X041D03*X048D03*X053Y043181D03*Y023181D03*Y013181D03*
X025Y023181D03*X041Y028181D03*X034D03*X048D03*X027D03*X039Y033181D03*
X032D03*X046D03*X055Y038181D03*Y008181D03*X027D03*X055Y028181D03*
X053Y033181D03*X025Y043181D03*X055Y018181D03*X027Y038181D03*
X025Y033181D03*X027Y018181D03*X034Y008181D03*X039Y013181D03*Y023181D03*
X041Y038181D03*X039Y043181D03*X041Y008181D03*X032Y013181D03*Y023181D03*
X034Y038181D03*X032Y043181D03*X048Y038181D03*X046Y013181D03*Y023181D03*
Y043181D03*X048Y008181D03*
M02*