%FSTAX24Y24*%
%MOIN*%
%IN fourses_panel_2.bottomlayer.ger *%
%ADD10C,0.1969*%
%ADD11C,0.3150*%
%ADD12C,0.3543*%
D10*X002953Y001181D03*X057047D03*X002953Y049409D03*X057047D03*D12*
X005Y030681D03*Y020681D03*X015Y030681D03*Y010681D03*X005Y040681D03*
Y010681D03*X015Y040681D03*Y020681D03*D11*X025Y013181D03*X034Y018181D03*
X041D03*X048D03*X053Y043181D03*Y023181D03*Y013181D03*X025Y023181D03*
X041Y028181D03*X034D03*X048D03*X027D03*X039Y033181D03*X032D03*X046D03*
X055Y038181D03*Y008181D03*X027D03*X055Y028181D03*X053Y033181D03*
X025Y043181D03*X055Y018181D03*X027Y038181D03*X025Y033181D03*
X027Y018181D03*X034Y008181D03*X039Y013181D03*Y023181D03*X041Y038181D03*
X039Y043181D03*X041Y008181D03*X032Y013181D03*Y023181D03*X034Y038181D03*
X032Y043181D03*X048Y038181D03*X046Y013181D03*Y023181D03*Y043181D03*
X048Y008181D03*D10*X002953Y001181D03*X057047D03*X002953Y049409D03*
X057047D03*D12*X005Y030681D03*Y020681D03*X015Y030681D03*Y010681D03*
X005Y040681D03*Y010681D03*X015Y040681D03*Y020681D03*D11*X025Y013181D03*
X034Y018181D03*X041D03*X048D03*X053Y043181D03*Y023181D03*Y013181D03*
X025Y023181D03*X041Y028181D03*X034D03*X048D03*X027D03*X039Y033181D03*
X032D03*X046D03*X055Y038181D03*Y008181D03*X027D03*X055Y028181D03*
X053Y033181D03*X025Y043181D03*X055Y018181D03*X027Y038181D03*
X025Y033181D03*X027Y018181D03*X034Y008181D03*X039Y013181D03*Y023181D03*
X041Y038181D03*X039Y043181D03*X041Y008181D03*X032Y013181D03*Y023181D03*
X034Y038181D03*X032Y043181D03*X048Y038181D03*X046Y013181D03*Y023181D03*
Y043181D03*X048Y008181D03*
M02*