M48
FMAT,2
INCH,LZ
T1C0.1260
T2C0.2441
T3C0.2835
%
T1
X002953Y001181
X057047Y001181
X002953Y049409
X057047Y049409
X002953Y001181
X057047Y001181
X002953Y049409
X057047Y049409
T2
X025Y013181
X034Y018181
X041Y018181
X048Y018181
X053Y043181
X053Y023181
X053Y013181
X025Y023181
X041Y028181
X034Y028181
X048Y028181
X027Y028181
X039Y033181
X032Y033181
X046Y033181
X055Y038181
X055Y008181
X027Y008181
X055Y028181
X053Y033181
X025Y043181
X055Y018181
X027Y038181
X025Y033181
X027Y018181
X034Y008181
X039Y013181
X039Y023181
X041Y038181
X039Y043181
X041Y008181
X032Y013181
X032Y023181
X034Y038181
X032Y043181
X048Y038181
X046Y013181
X046Y023181
X046Y043181
X048Y008181
X025Y013181
X034Y018181
X041Y018181
X048Y018181
X053Y043181
X053Y023181
X053Y013181
X025Y023181
X041Y028181
X034Y028181
X048Y028181
X027Y028181
X039Y033181
X032Y033181
X046Y033181
X055Y038181
X055Y008181
X027Y008181
X055Y028181
X053Y033181
X025Y043181
X055Y018181
X027Y038181
X025Y033181
X027Y018181
X034Y008181
X039Y013181
X039Y023181
X041Y038181
X039Y043181
X041Y008181
X032Y013181
X032Y023181
X034Y038181
X032Y043181
X048Y038181
X046Y013181
X046Y023181
X046Y043181
X048Y008181
T3
X005Y030681
X005Y020681
X015Y030681
X015Y010681
X005Y040681
X005Y010681
X015Y040681
X015Y020681
X005Y030681
X005Y020681
X015Y030681
X015Y010681
X005Y040681
X005Y010681
X015Y040681
X015Y020681
M30
