%FSTAX24Y24*%
%MOIN*%
%IN fourses_panel_2.topsilkscreen.ger *%
%ADD10C,0.0300*%
D10*X046Y000681D02*G01X048D01*Y004681D01*X014Y048181D02*X012D01*
X043Y003681D02*Y001681D01*X044Y000681D01*X045Y001681D01*Y003681D01*
X044Y004681D01*X043Y003681D01*X042Y000681D02*Y003681D01*X041Y004681D01*
X04Y003681D01*Y000681D01*X037Y004681D02*X038Y002681D01*X037Y001681D01*
X038Y000681D01*X039D01*Y004681D01*X038Y002681D02*X039D01*
X026Y050181D02*X024Y049181D01*Y048181D01*X026D01*Y047181D01*
X024Y046181D01*X031Y000681D02*X033D01*Y004681D01*X031D01*
X029Y048181D02*X027D01*X036Y004681D02*X034Y003681D01*Y002681D01*
X036D01*Y001681D01*X034Y000681D01*X03Y046181D02*X032Y047181D01*
Y048181D01*X03D01*Y049181D01*X032Y050181D01*X029D02*X027D01*Y046181D01*
X029D01*X031Y002681D02*X033D01*X03Y004681D02*X028Y003681D01*Y002681D01*
X03D01*Y001681D01*X028Y000681D01*X015Y004681D02*X016Y002681D01*
X015Y001681D01*X016Y000681D01*X017D01*Y004681D01*X016Y002681D02*
X017D01*X018Y050181D02*Y047181D01*X019Y046181D01*X02Y047181D01*
Y050181D01*X015Y049181D02*Y047181D01*X016Y046181D01*X017Y047181D01*
Y049181D01*X016Y050181D01*X015Y049181D01*X014Y050181D02*X012D01*
Y046181D01*X046Y002681D02*X048D01*X021Y000681D02*X023D01*
X022Y004681D02*Y000681D01*X018Y004681D02*Y001681D01*X019Y000681D01*
X02Y001681D01*Y004681D01*X04Y048181D02*X042D01*X023Y046181D02*
X022Y048181D01*X023Y049181D01*X022Y050181D01*X021D01*Y046181D01*
X022Y048181D02*X021D01*X014Y002681D02*X013D01*X012Y001681D01*
X013Y000681D01*X014D01*Y004681D01*X038Y050181D02*Y046181D01*
X037Y050181D02*X039D01*X042Y046181D02*Y049181D01*X041Y050181D01*
X04Y049181D01*Y046181D01*X018Y002681D02*X02D01*X046Y048181D02*X047D01*
X048Y049181D01*X047Y050181D01*X046D01*Y046181D01*X026Y009181D02*
X024D01*X026Y039181D02*X024D01*X022Y044181D02*X023Y043181D01*
X022Y042181D01*X024D01*X026Y040181D01*Y042181D01*X028D01*
X027Y043181D01*X028Y044181D01*X026D01*X024Y046181D01*Y044181D01*
X022D01*Y034181D02*X024D01*Y036181D01*X026Y034181D01*X028D01*
X027Y033181D01*X028Y032181D01*X026D01*Y030181D01*X024Y032181D01*
X022D01*X023Y033181D01*X022Y034181D01*X026Y029181D02*X024D01*
X022Y024181D02*X024D01*Y026181D01*X026Y024181D01*X028D01*
X027Y023181D01*X028Y022181D01*X026D01*Y020181D01*X024Y022181D01*
X022D01*X023Y023181D01*X022Y024181D01*X028Y017181D02*X03D01*
X022Y014181D02*X024D01*Y016181D01*X026Y014181D01*X028D01*
X027Y013181D01*X028Y012181D01*X026D01*Y010181D01*X024Y012181D01*
X022D01*X023Y013181D01*X022Y014181D01*X052Y009181D02*X053Y008181D01*
X052Y007181D01*X054Y005181D01*X055Y006181D01*X056Y005181D01*
X058Y007181D01*X057Y008181D01*X058Y009181D01*X056Y011181D01*
X055Y010181D01*X054Y011181D01*Y010181D01*X056Y012181D01*X055Y013181D01*
X056Y014181D01*X054Y016181D01*Y015181D01*X055Y016181D01*X056Y015181D01*
X058Y017181D01*X057Y018181D01*X058Y019181D01*X056Y021181D01*
X055Y020181D01*X054Y021181D01*Y020181D01*X056Y022181D01*X055Y023181D01*
X056Y024181D01*X054Y026181D01*Y025181D01*X055Y026181D01*X056Y025181D01*
X058Y027181D01*X057Y028181D01*X058Y029181D01*X056Y031181D01*
X055Y030181D01*X054Y031181D01*Y030181D01*X056Y032181D01*X055Y033181D01*
X056Y034181D01*X054Y036181D01*Y035181D01*X055Y036181D01*X056Y035181D01*
X058Y037181D01*X057Y038181D01*X058Y039181D01*X056Y041181D01*
X055Y040181D01*X054Y041181D01*Y040181D01*X056Y042181D01*X055Y043181D01*
X056Y044181D01*X054Y046181D01*X053Y045181D01*X052Y046181D01*
X05Y044181D01*X054Y040181D02*X053Y041181D01*X052Y040181D01*
X05Y042181D01*X051Y043181D01*X05Y044181D01*X054Y041181D02*
X052Y039181D01*X054Y035181D02*X052Y037181D01*X053Y038181D01*
X052Y039181D01*X054Y036181D02*X053Y035181D01*X052Y036181D01*
X05Y034181D01*X054Y030181D02*X053Y031181D01*X052Y030181D01*
X05Y032181D01*X051Y033181D01*X05Y034181D01*X054Y031181D02*
X052Y029181D01*X054Y025181D02*X052Y027181D01*X053Y028181D01*
X052Y029181D01*X054Y026181D02*X053Y025181D01*X052Y026181D01*
X05Y024181D01*X054Y020181D02*X053Y021181D01*X052Y020181D01*
X05Y022181D01*X051Y023181D01*X05Y024181D01*X054Y021181D02*
X052Y019181D01*X054Y015181D02*X052Y017181D01*X053Y018181D01*
X052Y019181D01*X054Y016181D02*X053Y015181D01*X052Y016181D01*
X05Y014181D01*X054Y010181D02*X053Y011181D01*X052Y010181D01*
X05Y012181D01*X051Y013181D01*X05Y014181D01*X054Y011181D02*
X052Y009181D01*X0535Y035681D02*X0545D01*X0535Y040681D02*X0545D01*
X0535Y030681D02*X0545D01*X0535Y025681D02*X0545D01*X0535Y020681D02*
X0545D01*X0535Y015681D02*X0545D01*X0535Y010681D02*X0545D01*
X028Y007181D02*X03D01*X029Y008181D01*X03Y009181D01*X028D01*Y011181D01*
X026Y009181D01*X028Y007181D02*X026Y005181D01*Y007181D01*X024D01*
X025Y008181D01*X024Y009181D01*X028Y019181D02*Y021181D01*X026Y019181D01*
X024D01*X025Y018181D01*X024Y017181D01*X026D01*Y015181D01*
X028Y017181D01*Y019181D02*X03D01*X029Y018181D01*X03Y017181D01*
X028Y027181D02*X03D01*X029Y028181D01*X03Y029181D01*X028D01*Y031181D01*
X026Y029181D01*X028Y027181D02*X026Y025181D01*Y027181D01*X024D01*
X025Y028181D01*X024Y029181D01*X028Y037181D02*X03D01*X029Y038181D01*
X03Y039181D01*X028D01*Y041181D01*X026Y039181D01*X028Y037181D02*
X026Y035181D01*Y037181D01*X024D01*X025Y038181D01*X024Y039181D01*
X0345Y010681D02*X0305Y008681D01*X0335Y005681D01*X0375Y007681D01*
X0345Y010681D01*X0325Y045681D02*X0285Y043681D01*X0315Y040681D01*
X0355Y042681D01*X0325Y045681D01*X0345Y040681D02*X0305Y038681D01*
X0335Y035681D01*X0375Y037681D01*X0345Y040681D01*X0325Y035681D02*
X0285Y033681D01*X0315Y030681D01*X0355Y032681D01*X0325Y035681D01*
X0345Y030681D02*X0305Y028681D01*X0335Y025681D01*X0375Y027681D01*
X0345Y030681D01*X0325Y025681D02*X0285Y023681D01*X0315Y020681D01*
X0355Y022681D01*X0325Y025681D01*X0345Y020681D02*X0305Y018681D01*
X0335Y015681D01*X0375Y017681D01*X0345Y020681D01*X0325Y015681D02*
X0285Y013681D01*X0315Y010681D01*X0355Y012681D01*X0325Y015681D01*
X045Y029181D02*X049Y026181D01*X0495Y030681D01*X045Y046181D02*
X044Y048181D01*X045Y049181D01*X044Y050181D01*X043D01*Y046181D01*
X044Y048181D02*X043D01*X051Y027181D02*X047Y030181D01*X0465Y025681D01*
X049Y043181D02*X043D01*X046Y046181D01*Y040181D01*X049Y043181D01*
X045Y039181D02*X049Y036181D01*X0495Y040681D01*X051Y037181D02*
X047Y040181D01*X0465Y035681D01*X045Y019181D02*X049Y016181D01*
X0495Y020681D01*X051Y017181D02*X047Y020181D01*X0465Y015681D01*
X045Y009181D02*X049Y006181D01*X0495Y010681D01*X051Y007181D02*
X047Y010181D01*X0465Y005681D01*X043Y013181D02*X049D01*X046Y010181D01*
Y016181D01*X043Y013181D01*Y023181D02*X049D01*X046Y020181D01*Y026181D01*
X043Y023181D01*X049Y033181D02*X043D01*X046Y036181D01*Y030181D01*
X049Y033181D01*X040039Y00972D02*X041Y010681D01*X041707Y009974D01*
X041859Y00985D01*X042032Y009757D01*X042219Y0097D01*X042414Y009681D01*
X044D01*Y008843D01*X043987Y008683D01*X043949Y008527D01*
X04375Y007931D01*X043573Y007576D01*X043489Y007439D01*X043385Y007316D01*
X043365Y007296D01*X043242Y007192D01*X043105Y007109D01*
X042814Y006963D01*X042683Y006909D01*X042261Y006768D01*
X042188Y006741D01*X042082Y006696D01*X04195Y006615D01*X041833Y006514D01*
X041Y005681D01*X040293Y006388D01*X040141Y006513D01*X039968Y006605D01*
X039781Y006662D01*X039586Y006681D01*X038D01*Y007479D01*
X038003Y007559D01*X038013Y007679D01*X038051Y007835D01*
X038228Y008364D01*X038282Y008495D01*X038427Y008786D01*
X038511Y008923D01*X038615Y009046D01*X038635Y009066D01*X038758Y00917D01*
X038895Y009254D01*X039186Y009399D01*X039317Y009454D01*X04Y009681D01*
X038039Y02472D02*X039Y025681D01*X039707Y024974D01*X039859Y02485D01*
X040032Y024757D01*X040219Y0247D01*X040414Y024681D01*X042D01*Y023843D01*
X041987Y023683D01*X041949Y023527D01*X04175Y022931D01*X041573Y022576D01*
X041489Y022439D01*X041385Y022316D01*X041365Y022296D01*
X041242Y022192D01*X041105Y022109D01*X040814Y021963D01*
X040683Y021909D01*X040261Y021768D01*X040188Y021741D01*
X040082Y021696D01*X03995Y021615D01*X039833Y021514D01*X039Y020681D01*
X038293Y021388D01*X038141Y021513D01*X037968Y021605D01*
X037781Y021662D01*X037586Y021681D01*X036D01*Y022479D01*
X036003Y022559D01*X036013Y022679D01*X036051Y022835D01*
X036228Y023364D01*X036282Y023495D01*X036427Y023786D01*
X036511Y023923D01*X036615Y024046D01*X036635Y024066D01*X036758Y02417D01*
X036895Y024254D01*X037186Y024399D01*X037317Y024454D01*X038Y024681D01*
X040125Y02972D02*X041086Y030681D01*X041793Y029974D01*X041944Y02985D01*
X042117Y029757D01*X042305Y0297D01*X0425Y029681D01*X044086D01*
Y028843D01*X044073Y028683D01*X044034Y028527D01*X043836Y027931D01*
X043658Y027576D01*X043575Y027439D01*X043471Y027316D01*
X043451Y027296D01*X043328Y027192D01*X043191Y027109D01*
X042899Y026963D01*X042768Y026909D01*X042346Y026768D01*
X042274Y026741D01*X042167Y026696D01*X042036Y026615D01*
X041919Y026514D01*X041086Y025681D01*X040379Y026388D01*
X040227Y026513D01*X040054Y026605D01*X039867Y026662D01*
X039672Y026681D01*X038086D01*Y027479D01*X038089Y027559D01*
X038099Y027679D01*X038137Y027835D01*X038313Y028364D01*
X038368Y028495D01*X038513Y028786D01*X038596Y028923D01*
X038701Y029046D01*X038721Y029066D01*X038843Y02917D01*X038981Y029254D01*
X039272Y029399D01*X039403Y029454D01*X040086Y029681D01*X038125Y03472D02*
X039086Y035681D01*X039793Y034974D01*X039944Y03485D01*X040117Y034757D01*
X040305Y0347D01*X0405Y034681D01*X042086D01*Y033843D01*
X042073Y033683D01*X042034Y033527D01*X041836Y032931D01*
X041658Y032576D01*X041575Y032439D01*X041471Y032316D01*
X041451Y032296D01*X041328Y032192D01*X041191Y032109D01*
X040899Y031963D01*X040768Y031909D01*X040346Y031768D01*
X040274Y031741D01*X040167Y031696D01*X040036Y031615D01*
X039919Y031514D01*X039086Y030681D01*X038379Y031388D01*
X038227Y031513D01*X038054Y031605D01*X037867Y031662D01*
X037672Y031681D01*X036086D01*Y032479D01*X036089Y032559D01*
X036099Y032679D01*X036137Y032835D01*X036313Y033364D01*
X036368Y033495D01*X036513Y033786D01*X036596Y033923D01*
X036701Y034046D01*X036721Y034066D01*X036843Y03417D01*X036981Y034254D01*
X037272Y034399D01*X037403Y034454D01*X038086Y034681D01*X040125Y03972D02*
X041086Y040681D01*X041793Y039974D01*X041944Y03985D01*X042117Y039757D01*
X042305Y0397D01*X0425Y039681D01*X044086D01*Y038843D01*
X044073Y038683D01*X044034Y038527D01*X043836Y037931D01*
X043658Y037576D01*X043575Y037439D01*X043471Y037316D01*
X043451Y037296D01*X043328Y037192D01*X043191Y037109D01*
X042899Y036963D01*X042768Y036909D01*X042346Y036768D01*
X042274Y036741D01*X042167Y036696D01*X042036Y036615D01*
X041919Y036514D01*X041086Y035681D01*X040379Y036388D01*
X040227Y036513D01*X040054Y036605D01*X039867Y036662D01*
X039672Y036681D01*X038086D01*Y037479D01*X038089Y037559D01*
X038099Y037679D01*X038137Y037835D01*X038313Y038364D01*
X038368Y038495D01*X038513Y038786D01*X038596Y038923D01*
X038701Y039046D01*X038721Y039066D01*X038843Y03917D01*X038981Y039254D01*
X039272Y039399D01*X039403Y039454D01*X040086Y039681D01*X038125Y04472D02*
X039086Y045681D01*X039793Y044974D01*X039944Y04485D01*X040117Y044757D01*
X040305Y0447D01*X0405Y044681D01*X042086D01*Y043843D01*
X042073Y043683D01*X042034Y043527D01*X041836Y042931D01*
X041658Y042576D01*X041575Y042439D01*X041471Y042316D01*
X041451Y042296D01*X041328Y042192D01*X041191Y042109D01*
X040899Y041963D01*X040768Y041909D01*X040346Y041768D01*
X040274Y041741D01*X040167Y041696D01*X040036Y041615D01*
X039919Y041514D01*X039086Y040681D01*X038379Y041388D01*
X038227Y041513D01*X038054Y041605D01*X037867Y041662D01*
X037672Y041681D01*X036086D01*Y042479D01*X036089Y042559D01*
X036099Y042679D01*X036137Y042835D01*X036313Y043364D01*
X036368Y043495D01*X036513Y043786D01*X036596Y043923D01*
X036701Y044046D01*X036721Y044066D01*X036843Y04417D01*X036981Y044254D01*
X037272Y044399D01*X037403Y044454D01*X038086Y044681D01*X039953Y01972D02*
X040914Y020681D01*X041621Y019974D01*X041773Y01985D01*X041946Y019757D01*
X042133Y0197D01*X042328Y019681D01*X043914D01*Y018843D01*
X043901Y018683D01*X043863Y018527D01*X043664Y017931D01*
X043487Y017576D01*X043404Y017439D01*X043299Y017316D01*
X043279Y017296D01*X043157Y017192D01*X043019Y017109D01*
X042728Y016963D01*X042597Y016909D01*X042175Y016768D01*
X042103Y016741D01*X041996Y016696D01*X041865Y016615D01*
X041747Y016514D01*X040914Y015681D01*X040207Y016388D01*
X040056Y016513D01*X039883Y016605D01*X039695Y016662D01*X0395Y016681D01*
X037914D01*Y017479D01*X037917Y017559D01*X037927Y017679D01*
X037966Y017835D01*X038142Y018364D01*X038196Y018495D01*
X038342Y018786D01*X038425Y018923D01*X038529Y019046D01*
X038549Y019066D01*X038672Y01917D01*X038809Y019254D01*X039101Y019399D01*
X039232Y019454D01*X039914Y019681D01*X038039Y01472D02*X039Y015681D01*
X039707Y014974D01*X039859Y01485D01*X040032Y014757D01*X040219Y0147D01*
X040414Y014681D01*X042D01*Y013843D01*X041987Y013683D01*
X041949Y013527D01*X04175Y012931D01*X041573Y012576D01*X041489Y012439D01*
X041385Y012316D01*X041365Y012296D01*X041242Y012192D01*
X041105Y012109D01*X040814Y011963D01*X040683Y011909D01*
X040261Y011768D01*X040188Y011741D01*X040082Y011696D01*X03995Y011615D01*
X039833Y011514D01*X039Y010681D01*X038293Y011388D01*X038141Y011513D01*
X037968Y011605D01*X037781Y011662D01*X037586Y011681D01*X036D01*
Y012479D01*X036003Y012559D01*X036013Y012679D01*X036051Y012835D01*
X036228Y013364D01*X036282Y013495D01*X036427Y013786D01*
X036511Y013923D01*X036615Y014046D01*X036635Y014066D01*X036758Y01417D01*
X036895Y014254D01*X037186Y014399D01*X037317Y014454D01*X038Y014681D01*
M02*